<?xml version="1.0" encoding="UTF-8"?>
<svg id="Capa_1" data-name="Capa 1" xmlns="http://www.w3.org/2000/svg" version="1.1" viewBox="0 0 39.78 40.06">
  <defs>
    <style>
      .cls-1 {
        fill: #35509f;
        stroke-width: 0px;
      }
    </style>
  </defs>
  <path class="cls-1" d="M32.96,35.45h0s-.04.04-.07.06c-.04.04-.07.06-.11.1h0c-1.39,1.12-3.61,2.66-5.18,3.29-6.85,2.74-13.71-.09-16.16-1.27-.15-.07-.29-.14-.4-.19-.01-.01-.04-.02-.05-.03-.09-.04-.17-.09-.23-.11-.91-.47-2.51-1.29-4.2-2.59-1.37-1.06-2.79-2.44-3.97-4.21-.49-.73-.93-1.54-1.31-2.42C.42,26.03,0,23.84,0,21.61c0-2.46.47-4.97,1.35-7.36.55-1.5,1.26-2.96,2.11-4.33,1.64-2.65,3.79-4.99,6.3-6.7.55-.37,1.11-.71,1.68-1.03.26-.14.52-.27.78-.4C17.23-.61,21.97.01,23.4.25c6.93,1.16,12.77,6.18,15.14,12.38,3.03,7.9.29,17.34-5.58,22.82Z"/>
</svg>