<?xml version="1.0" encoding="UTF-8"?>
<svg id="Capa_1" data-name="Capa 1" xmlns="http://www.w3.org/2000/svg" version="1.1" viewBox="0 0 36.31 38.44">
  <defs>
    <style>
      .cls-1 {
        fill: #e8c73e;
        stroke-width: 0px;
      }
    </style>
  </defs>
  <path class="cls-1" d="M36.3,23.4c0-.4-.02-.8-.04-1.2,0-.52-.02-1.03-.07-1.54-.12-1.47-.37-2.92-.63-4.37-.23-2.02-.63-4-1.3-5.92-1.23-3.43-4.59-7.43-7.96-8.91-1.77-.71-4.01-1.18-6.29-1.37-2.09-.17-4.22-.11-6.07.23-.16.03-.31.06-.46.09-.3.06-.59.14-.87.22-.69.25-1.38.52-2.06.82-2.94,1.29-5.72,3.08-7.53,5.75C.93,10.37-.1,13.65.05,17.46h0c-.4,5.33,1.53,12.51,5.23,16.47,1.85,1.71,4.19,2.82,6.61,3.54.53.16,1.06.3,1.59.42.1.02.21.05.31.07,3.19.64,6.53.62,9.74.11,2.14-.54,4.32-1.09,6.36-1.92,2.08-1.12,3.63-3.04,4.9-4.99,1.3-2.36,1.55-5.08,1.51-7.74ZM33.04,30.31c-1.17,1.69-2.51,3.44-4.43,4.29-1.63.5-3.26,1-4.9,1.44-3.36.65-6.89.64-10.23-.14-.36-.09-.73-.18-1.09-.29-.19-.06-.38-.13-.58-.2-1.98-.7-3.95-1.61-5.43-3.12-3.08-3.81-4.42-8.92-4.44-13.76,0-2.93.11-5.96,1.69-8.53,1.35-3.04,4.03-5.1,6.99-6.49.94-.44,1.9-.81,2.86-1.13.01,0,.02,0,.03-.01,2.26-.57,4.6-.55,6.9-.26,3.09.2,6.29,1.07,8.4,3.48,2.76,2.8,4.06,5.55,4.63,9.44.31,2.48.92,4.91.9,7.42.1,2.66.04,5.48-1.3,7.85Z"/>
  <path class="cls-1" d="M13.48,4.31c-.17.05-.34.11-.5.17-.83.31-1.58.69-2.27,1.14-1.97,1.27-3.43,3.06-4.52,5.29-1.34,1.86-1.47,4.2-1.53,6.42-.02,2.4-.04,4.92.69,7.25,1.14,3.33,3.29,6.58,6.39,8.33.56.31,1.14.58,1.76.79.08.03.16.05.24.08,3.18,1.07,6.57.3,9.78-.22,3.63-.66,5.83-2.71,7.6-5.85,1.23-2.04,1.43-4.52,1.57-6.86-.26-4.11-1.49-9.48-4.44-12.48-3.75-3.7-9.63-5.59-14.75-4.04ZM29.83,25.98c-.84,1.54-1.79,3.1-3.17,4.21-2.36,1.64-5.34,1.74-8.1,2.11-1.86.27-3.57-.02-5.08-.71-.65-.3-1.27-.67-1.85-1.11-2.27-1.71-3.91-4.39-4.67-7.25-.4-1.91-.4-3.89-.39-5.83.04-1.3.11-2.7.46-4.01.74-1.42,1.46-2.89,2.47-4.15.39-.5.82-.94,1.28-1.33.81-.69,1.72-1.2,2.69-1.56,4.01-1.48,9.02-.27,12.37,2.44,3.36,2.61,4.22,7.14,4.85,11.13.09,2.03-.16,4.15-.87,6.06Z"/>
</svg>