<?xml version="1.0" encoding="UTF-8"?>
<svg id="Capa_1" data-name="Capa 1" xmlns="http://www.w3.org/2000/svg" version="1.1" viewBox="0 0 75.68 5.48">
  <defs>
    <style>
      .cls-1 {
        fill: #000;
        stroke-width: 0px;
      }
    </style>
  </defs>
  <path class="cls-1" d="M4.75.05l-1.85,3.18L1.05.05H0v5.37h1.05V2l1.33,2.21h1.05l1.32-2.21v3.42h1.05V.05h-1.05Z"/>
  <path class="cls-1" d="M11.36.05h-1.05l-2.2,5.37h1.15l.45-1.21h2.25l.45,1.21h1.15L11.36.05ZM10.07,3.22l.76-2.01.75,2.01h-1.51Z"/>
  <path class="cls-1" d="M19.35.05v3.59L16.89.05h-1.05v5.37h1.05V1.82l2.46,3.59h1.05V.05h-1.05Z"/>
  <path class="cls-1" d="M28.15,1.67c-.12-.33-.29-.63-.52-.87-.23-.24-.51-.44-.84-.58-.33-.14-.71-.22-1.13-.22s-.8.07-1.13.22c-.33.14-.61.34-.84.58-.22.25-.4.54-.52.87-.12.33-.18.69-.18,1.06s.06.74.18,1.07c.12.33.3.62.52.87.23.24.51.44.84.58.33.14.71.21,1.13.21s.8-.07,1.13-.21c.33-.14.61-.34.84-.58.23-.25.4-.54.52-.87s.18-.69.18-1.07-.06-.73-.18-1.06ZM27.19,3.41c-.06.21-.15.4-.29.56-.13.15-.3.28-.5.37-.2.09-.45.14-.74.14s-.53-.05-.74-.14c-.2-.09-.37-.22-.5-.37-.14-.16-.23-.35-.29-.56-.06-.22-.09-.44-.09-.68s.03-.46.09-.68c.06-.21.15-.4.29-.56.13-.15.3-.28.5-.37.2-.09.45-.14.74-.14s.53.04.74.14c.2.09.37.22.5.37.14.16.23.35.29.56.06.22.09.44.09.68s-.03.46-.09.68Z"/>
  <path class="cls-1" d="M37.59.05v1.21c0,.37-.09.67-.28.9-.2.24-.5.35-.9.35s-.7-.12-.89-.35c-.2-.24-.29-.53-.29-.9V.05h-1.05v1.21c0,.27.04.53.11.77.08.25.19.46.33.66.15.19.33.35.54.48.22.14.46.23.73.28v1.96h1.05v-1.96c.28-.05.52-.15.73-.28.21-.14.39-.3.53-.5.15-.19.26-.41.33-.64.07-.24.11-.5.11-.77V.05h-1.05Z"/>
  <path class="cls-1" d="M47.44.05h-1.05l-2.19,5.37h1.14l.46-1.21h2.25l.45,1.21h1.14L47.44.05ZM46.16,3.22l.75-2.01.76,2.01h-1.51Z"/>
  <path class="cls-1" d="M53.89,2.24v.98h1.32v1.16c-.15.03-.3.05-.46.06-.15.01-.3.02-.43.02-.34,0-.63-.04-.85-.13-.22-.08-.41-.2-.55-.35-.14-.15-.24-.33-.28-.54-.06-.21-.09-.43-.09-.68s.03-.47.09-.69c.06-.21.16-.4.31-.55.14-.15.33-.28.58-.37.24-.09.55-.13.92-.13.13,0,.27,0,.41.02s.28.02.42.05c.14.02.27.05.39.08.12.03.23.06.32.11V.2c-.11-.04-.23-.07-.37-.09-.13-.02-.26-.04-.4-.06-.14-.01-.27-.02-.4-.03-.13-.01-.25-.02-.36-.02-.49,0-.92.07-1.29.22-.37.14-.68.34-.92.58-.25.25-.43.54-.56.87-.13.34-.19.7-.19,1.08s.06.74.17,1.07c.12.33.3.62.53.87.24.24.53.44.87.58.34.14.74.21,1.2.21.29,0,.61-.03.97-.09.35-.06.69-.15,1.01-.27v-2.87h-2.37Z"/>
  <path class="cls-1" d="M62.2.05v3.17c0,.37-.1.67-.29.9s-.49.35-.9.35-.7-.12-.89-.35-.29-.53-.29-.9V.05h-1.05v3.17c0,.31.05.6.15.87.1.27.25.51.43.71.19.2.43.36.71.48s.59.17.95.17.68-.06.95-.17c.28-.12.51-.28.7-.48.19-.2.33-.44.43-.71.11-.27.15-.56.15-.87V.05h-1.05Z"/>
  <path class="cls-1" d="M67.12.05v3.17c0,.37-.09.67-.28.9-.19.24-.48.35-.89.35-.09,0-.16,0-.22-.01-.06-.01-.12-.02-.17-.03v.98c.07.01.14.02.19.03.05.01.13.01.24.01.34,0,.64-.06.91-.17.27-.12.5-.28.69-.48.19-.2.33-.44.43-.71.11-.27.15-.56.15-.87V.05h-1.05Z"/>
  <path class="cls-1" d="M73.48.05h-1.05l-2.19,5.37h1.14l.46-1.21h2.24l.46,1.21h1.14L73.48.05ZM72.2,3.22l.76-2.01.76,2.01h-1.51Z"/>
</svg>