<?xml version="1.0" encoding="UTF-8"?>
<svg id="Capa_1" data-name="Capa 1" xmlns="http://www.w3.org/2000/svg" version="1.1" viewBox="0 0 176.76 134.62">
  <defs>
    <style>
      .cls-1 {
        fill: #000;
      }

      .cls-1, .cls-2, .cls-3, .cls-4, .cls-5 {
        stroke-width: 0px;
      }

      .cls-2 {
        fill: #e8c73e;
      }

      .cls-3 {
        fill: #010101;
      }

      .cls-4 {
        fill: #e85d49;
      }

      .cls-5 {
        fill: #35509f;
      }
    </style>
  </defs>
  <g>
    <path class="cls-2" d="M104.92,67.63c-.02-1.16-.06-2.31-.11-3.46,0-1.49-.07-2.98-.19-4.46-.34-4.24-1.07-8.44-1.83-12.63-.67-5.83-1.83-11.55-3.77-17.11-3.55-9.92-13.27-21.47-23-25.74-5.12-2.05-11.58-3.42-18.18-3.96-6.04-.5-12.2-.32-17.53.66-.45.08-.9.17-1.34.27-.87.19-1.71.39-2.52.62-1.99.72-3.99,1.5-5.96,2.37-8.49,3.72-16.54,8.9-21.77,16.61C2.68,29.96-.3,39.44.15,50.47h0c-1.16,15.41,4.41,36.16,15.11,47.58,5.36,4.95,12.12,8.15,19.11,10.23,1.52.45,3.05.85,4.59,1.21.3.07.6.14.9.2,9.23,1.86,18.87,1.78,28.14.31,6.19-1.55,12.47-3.15,18.38-5.55,6.02-3.24,10.5-8.79,14.17-14.43,3.74-6.81,4.49-14.69,4.37-22.38ZM95.5,87.61c-3.37,4.88-7.26,9.94-12.81,12.41-4.7,1.46-9.42,2.88-14.17,4.17-9.7,1.87-19.91,1.86-29.56-.41-1.05-.25-2.1-.52-3.14-.82-.56-.19-1.11-.38-1.67-.58-5.72-2.03-11.41-4.66-15.7-9.02-8.9-11.02-12.76-25.77-12.83-39.76,0-8.47.32-17.22,4.88-24.66,3.89-8.78,11.65-14.73,20.2-18.76,2.7-1.27,5.49-2.35,8.26-3.27.03-.01.06-.02.09-.03,6.52-1.65,13.3-1.58,19.93-.74,8.94.58,18.18,3.09,24.29,10.05,7.97,8.09,11.73,16.03,13.39,27.28.89,7.16,2.66,14.19,2.59,21.45.3,7.67.11,15.84-3.76,22.69Z"/>
    <path class="cls-2" d="M38.96,12.46c-.49.15-.98.31-1.46.48-2.39.9-4.57,2.01-6.57,3.3-5.69,3.66-9.9,8.84-13.07,15.28-3.88,5.37-4.24,12.12-4.42,18.54-.07,6.94-.13,14.21,1.99,20.94,3.31,9.62,9.5,19.02,18.45,24.06,1.61.9,3.3,1.67,5.08,2.27.23.08.47.16.71.23,9.19,3.09,18.98.86,28.27-.64,10.5-1.91,16.85-7.85,21.96-16.9,3.54-5.91,4.14-13.08,4.53-19.81-.75-11.87-4.3-27.38-12.82-36.07-10.85-10.69-27.84-16.16-42.63-11.67ZM86.21,75.09c-2.41,4.44-5.18,8.96-9.15,12.17-6.83,4.75-15.44,5.01-23.41,6.1-5.37.77-10.31-.07-14.69-2.06-1.89-.86-3.67-1.94-5.34-3.2-6.56-4.95-11.3-12.69-13.5-20.96-1.17-5.52-1.17-11.23-1.12-16.85.12-3.77.33-7.79,1.34-11.58,2.15-4.11,4.22-8.36,7.14-11.99,1.13-1.45,2.38-2.73,3.71-3.85,2.35-1.99,4.98-3.47,7.78-4.5,11.6-4.28,26.08-.77,35.76,7.05,9.72,7.56,12.21,20.64,14.02,32.16.25,5.87-.46,11.99-2.52,17.52Z"/>
  </g>
  <g>
    <path class="cls-5" d="M142.08,23.38c-3.3-8.63-11.43-15.62-21.07-17.23-2-.33-8.6-1.19-15.56,2.15-.36.17-.72.36-1.08.55-.8.43-1.58.91-2.34,1.43-3.49,2.39-6.49,5.63-8.77,9.33-1.18,1.91-2.17,3.94-2.94,6.03-1.22,3.33-1.89,6.82-1.88,10.24.01,3.1.58,6.16,1.79,8.99.52,1.22,1.14,2.34,1.82,3.37,1.63,2.47,3.62,4.39,5.53,5.86,2.36,1.82,4.58,2.96,5.85,3.61.09.05.2.1.32.16.02.01.05.02.07.04.16.08.35.17.56.28,3.41,1.65,12.95,5.59,22.49,1.77,2.29-.92,4.42-2.22,6.33-3.81-.04-.75-.04-1.5.03-2.25.13-1.48.2-2.96.37-4.43.26-2.27.98-4.42,1.44-6.64.38-1.84.92-3.65,1.32-5.49.17-.76.7-1.37.84-2.15.02-.13.23-.54.53-.46.4.1.1.42.12.64.04.35-.09.67-.25.95-.48.84-.58,1.8-.88,2.69-.39,1.17-.53,2.39-.71,3.62-.17,1.16-.41,2.34-.69,3.5-.44,1.82-.77,3.65-.94,5.52-.11,1.24-.31,2.49-.28,3.73,8.33-7.59,12.26-20.89,8.01-31.99Z"/>
    <path class="cls-4" d="M150.09,93.05c.65,1.19,1.03,2.51,1.84,3.61.55.76.88,1.66,1.57,2.34-.78-.14-1.22-.77-1.61-1.28-1.39-1.85-2.28-3.96-3.11-6.13-.39-1.01-.65-2.06-.91-3.08-.63.52-1.09,1.02-1.37,1.32-.53.58-3.09,3.34-3.14,7.03l.26,2.12c1.16,4.55,6.13,8.22,11.15,7.76,3.36-.31,6.61-2.48,8.13-5.7.31-.67,1.26-2.9.78-5.66-.9-5.1-6.27-9.58-11.36-8.91-1.48.2-2.7.79-3.66,1.45.23,1.02.51,2.03.87,3.02.25.69.25,1.52.58,2.11Z"/>
    <path class="cls-1" d="M157.99,30.73s-.06-.09-.09-.12c-.89-.79-2.29-.56-3.02.39-.46.6-.84,1.25-1.28,1.86-.54.76-1.22,1.42-1.7,2.21-1.41,2.34-2.6,4.78-3.4,7.41-.35,1.17-.82,2.31-1.16,3.49-.42,1.43-1.04,2.78-1.53,4.18-.53,1.51-.79,3.16-1.49,4.57-.06.13-.12.26-.19.39-.88,1.84-1.54,3.76-2.52,5.55-.21.38-.54.67-.69,1.08-.06.16-.12.3-.2.44-.3.55-.77.91-1.47,1.05-.52.1-.88-.12-.77-.64.03-.14.05-.27.08-.41.07-.36.12-.73.11-1.1-.03-.97-.51-1.49-1.48-1.61-.81-.1-1.41.3-1.93.85-.27.29-.42.46-.65-.1-.41-1.01-.45-2.04-.47-3.08-.01-.45-.02-.9-.05-1.35,0-.14-.01-.28-.02-.41-.03-1.25.17-2.49.28-3.73.17-1.87.51-3.7.94-5.52.28-1.16.52-2.33.69-3.5.18-1.22.32-2.45.71-3.62.3-.89.41-1.85.88-2.69.16-.28.29-.59.25-.95-.02-.22.28-.54-.12-.64-.3-.07-.5.33-.53.46-.13.78-.67,1.39-.84,2.15-.4,1.84-.95,3.65-1.32,5.49-.46,2.22-1.18,4.37-1.44,6.64-.17,1.48-.24,2.96-.37,4.43-.07.74-.07,1.49-.03,2.25.02.45.06.9.11,1.35.01.13.03.25.05.38.16,1.25-.02,2.55.47,3.77.08.21.03.4-.06.55-.04.05-.08.1-.12.15-.52.49-.73,1.17-.99,1.77-1.02,2.3-1.54,4.77-2.26,7.17-.47,1.59-.86,3.21-1.63,4.72-.9,1.76-1.89,3.51-2.25,5.48-.35,1.96-1.1,3.8-1.61,5.71-.94,3.5-2.16,6.92-3.1,10.42-1.13,4.21-2.89,8.23-3.67,12.56-.43,2.4-1.07,4.79-1.9,7.11-.53,1.49-.97,3.02-1.3,4.59-.34,1.63-.98,3.21-1.31,4.86-.19.96-.49,1.9-.74,2.86-.34,1.33-.75,2.64-.83,4.02-.03.49.17.97.61,1.01.39.04.39-.5.47-.84.62-2.61,1.15-5.24,1.9-7.81.9-3.1,1.75-6.22,2.72-9.3,1.12-3.56,2.07-7.17,2.99-10.78,1.07-4.21,2.65-8.28,3.43-12.57.02-.12.1-.24.14-.35.6-1.54,1.29-3.04,1.79-4.61.92-2.88,1.73-5.8,2.68-8.67.29-.87.7-1.69.99-2.56.44-1.36.86-2.73,1.84-3.91,2.13-2.57,4.07-5.29,5.7-8.21.25-.44.5-.54.92-.57.65-.05,1.28-.14,1.85-.54.67-.46,1.15-1.05,1.57-1.7.25-.38.47-.79.7-1.2.44-.81.64-1.69,1.07-2.5.25-.47.49-.95.72-1.43.39-.82.75-1.65,1.06-2.5.55-1.5,1.1-2.99,1.73-4.46.57-1.31,1.34-2.56,1.45-4.03.06-.88.49-1.69.85-2.4.61-1.19.87-2.47,1.42-3.66.52-1.12.75-2.36,1.46-3.41.95-1.4,1.95-2.79,2.79-4.26.25-.43.62-.81.98-1.17.47-.47,1.17-.39,1.64.08.84.85.98,1.96.7,2.96-.29,1.03-.37,2.09-.48,3.1-.13,1.2-.38,2.37-.6,3.53-.28,1.44-.59,2.91-1.2,4.27-.12.27-.33.49-.4.81-.26,1.18-.77,2.28-1.23,3.39-.55,1.31-1.36,2.55-1.69,3.91-.42,1.73-1.35,3.24-1.76,4.98-.32,1.36-1.18,2.58-1.43,4.03-.25,1.43-.83,2.8-1.16,4.23-.56,2.41-1.01,4.83-1.35,7.28-.26,1.88-.12,3.74-.19,5.6-.04,1.15.11,2.31.26,3.45.13,1.01.24,2.04.38,3.05.05.38.11.76.18,1.13.08.45.18.89.29,1.33.02.06.03.13.05.19.26,1.03.53,2.07.91,3.08.83,2.16,1.72,4.28,3.11,6.13.39.52.82,1.14,1.61,1.28-.69-.68-1.01-1.58-1.57-2.34-.81-1.1-1.19-2.42-1.84-3.61-.32-.59-.33-1.42-.58-2.11-.35-.99-.63-2-.87-3.02-.08-.35-.15-.69-.23-1.04-.07-.34-.13-.68-.19-1.02-.13-.74-.25-1.48-.36-2.22-.29-1.91-.3-3.86-.34-5.79-.04-1.71.08-3.41.31-5.08.23-1.69.44-3.41.95-5.06.39-1.25.6-2.55.98-3.81.6-1.98,1.2-3.96,2-5.89,1.01-2.43,1.68-5,2.85-7.38.85-1.72,1.51-3.56,2.09-5.39.56-1.77,1.11-3.53,1.38-5.41.27-1.84.52-3.69.87-5.53.24-1.3.36-2.65-.97-3.56ZM136.31,64.71c-.61,1.2-1.46,2.25-2.22,3.35-.7,1.02-1.3,2.14-2.21,3.19-.08-.9.16-1.62.33-2.33.48-1.98,1.42-3.8,2.2-5.67.12-.29.29-.33.53-.13.45.38.74.94,1.44,1.04.29.04.02.38-.08.56ZM136.71,62.8c-.09.02-.51-.31-.84-.61-.22-.2-.4-.39-.4-.44,0-.35,1.14-1.24,1.57-1.17.56.1.55.55.53.97.01.24-.01.46-.09.64-.12.3-.38.51-.78.61Z"/>
    <g>
      <polygon class="cls-3" points="61.12 127.7 58.17 122.63 56.5 122.63 56.5 131.17 58.17 131.17 58.17 125.73 60.28 129.25 61.96 129.25 64.06 125.73 64.06 131.17 65.74 131.17 65.74 122.63 64.06 122.63 61.12 127.7"/>
      <path class="cls-3" d="M72.83,122.63l-3.49,8.54h1.81l.73-1.93h3.57l.73,1.93h1.81l-3.49-8.54h-1.67ZM72.46,127.68l1.2-3.2,1.2,3.2h-2.4Z"/>
      <polygon class="cls-3" points="87.16 128.35 83.25 122.63 81.58 122.63 81.58 131.17 83.25 131.17 83.25 125.45 87.16 131.17 88.83 131.17 88.83 122.63 87.16 122.63 87.16 128.35"/>
      <path class="cls-3" d="M100.28,123.83c-.36-.39-.81-.7-1.34-.93-.53-.23-1.13-.34-1.8-.34s-1.27.11-1.8.34c-.53.23-.98.54-1.34.93-.36.39-.64.85-.83,1.38-.19.53-.29,1.09-.29,1.69s.1,1.17.29,1.7c.19.53.47.98.83,1.37.36.39.81.7,1.34.93.53.23,1.13.34,1.8.34s1.27-.11,1.8-.34c.53-.23.98-.54,1.34-.93.36-.39.64-.85.83-1.37.19-.53.29-1.09.29-1.7s-.1-1.16-.29-1.69c-.19-.53-.47-.99-.83-1.38ZM99.57,127.98c-.1.34-.25.64-.46.89-.21.25-.48.45-.8.59-.33.14-.72.22-1.17.22s-.85-.07-1.17-.22c-.33-.14-.59-.34-.8-.59-.21-.25-.36-.55-.46-.89-.1-.34-.15-.7-.15-1.08s.05-.74.15-1.08c.1-.34.25-.63.46-.89s.48-.45.8-.59c.33-.14.72-.22,1.17-.22s.85.07,1.17.22c.33.14.59.34.8.59.21.25.36.55.46.89.1.34.15.7.15,1.08s-.05.74-.15,1.08Z"/>
      <path class="cls-3" d="M129.03,122.05l-3.59,8.79h1.87l.75-1.98h3.68l.75,1.98h1.87l-3.59-8.79h-1.73ZM128.66,127.26l1.24-3.29,1.24,3.29h-2.47Z"/>
      <path class="cls-3" d="M141.26,127.26h2.16v1.9c-.25.05-.5.08-.75.1-.25.02-.48.03-.71.03-.56,0-1.02-.07-1.39-.21-.37-.14-.67-.33-.89-.58-.22-.25-.38-.54-.47-.88-.09-.34-.14-.71-.14-1.11s.05-.78.15-1.13c.1-.35.27-.65.5-.9.23-.25.55-.45.96-.6.4-.14.91-.22,1.51-.22.21,0,.43,0,.67.03.24.02.46.05.69.09.22.04.44.08.64.13.2.05.37.11.52.17v-1.77c-.18-.06-.38-.11-.6-.14-.22-.04-.44-.07-.66-.09-.22-.02-.44-.04-.65-.06-.21-.01-.41-.02-.59-.02-.8,0-1.51.12-2.12.35-.61.23-1.11.55-1.52.96-.4.4-.71.88-.91,1.43-.21.55-.31,1.14-.31,1.77s.1,1.2.29,1.75c.19.54.48,1.01.86,1.42.38.4.86.72,1.42.95.57.23,1.22.34,1.97.34.48,0,1.01-.05,1.6-.15.58-.1,1.13-.25,1.65-.45v-4.7h-3.88v1.61Z"/>
      <path class="cls-3" d="M154.81,127.26c0,.6-.16,1.1-.47,1.48-.32.38-.81.58-1.47.58s-1.15-.19-1.47-.58c-.32-.38-.47-.88-.47-1.48v-5.2h-1.72v5.2c0,.51.08.98.24,1.43.16.45.4.83.71,1.16.31.33.7.59,1.15.78.45.19.97.29,1.56.29s1.1-.1,1.56-.29c.46-.19.84-.45,1.15-.78.31-.33.55-.72.71-1.16.16-.45.25-.92.25-1.43v-5.2h-1.73v5.2Z"/>
      <path class="cls-3" d="M162.81,127.26c0,.6-.16,1.1-.47,1.48-.31.38-.8.58-1.46.58-.14,0-.26,0-.36-.02-.1-.01-.19-.03-.29-.05v1.61c.13.02.23.04.31.05s.21.02.4.02c.55,0,1.05-.1,1.49-.29.44-.19.82-.45,1.13-.78.31-.33.55-.72.72-1.16.17-.45.25-.92.25-1.43v-5.2h-1.73v5.2Z"/>
      <path class="cls-3" d="M173.17,122.05h-1.72l-3.59,8.79h1.87l.75-1.98h3.68l.75,1.98h1.87l-3.59-8.79ZM171.07,127.26l1.23-3.29,1.24,3.29h-2.47Z"/>
    </g>
  </g>
</svg>